<?xml version="1.0" standalone="no"?>
<!DOCTYPE svg PUBLIC "-//W3C//DTD SVG 20010904//EN"
 "http://www.w3.org/TR/2001/REC-SVG-20010904/DTD/svg10.dtd">
<svg version="1.0" xmlns="http://www.w3.org/2000/svg"
 width="64.000000pt" height="64.000000pt" viewBox="0 0 64.000000 64.000000"
 preserveAspectRatio="xMidYMid meet">

<g transform="translate(0.000000,64.000000) scale(0.100000,-0.100000)"
fill="#000000" stroke="none">
<path d="M100 610 c-19 -19 -20 -33 -20 -290 0 -257 1 -271 20 -290 19 -19 33
-20 220 -20 187 0 201 1 220 20 19 19 20 33 20 290 0 257 -1 271 -20 290 -19
19 -33 20 -220 20 -187 0 -201 -1 -220 -20z m428 -12 c9 -9 12 -74 12 -230 l0
-218 -220 0 -220 0 0 218 c0 156 3 221 12 230 17 17 399 17 416 0z m12 -506
c0 -21 -5 -43 -12 -50 -17 -17 -399 -17 -416 0 -7 7 -12 29 -12 50 l0 38 220
0 220 0 0 -38z"/>
<path d="M132 578 c-16 -16 -16 -220 0 -236 17 -17 359 -17 376 0 16 16 16
220 0 236 -17 17 -359 17 -376 0z m368 -98 l0 -90 -180 0 -180 0 0 90 0 90
180 0 180 0 0 -90z m0 -120 c0 -6 -67 -10 -180 -10 -113 0 -180 4 -180 10 0 6
67 10 180 10 113 0 180 -4 180 -10z"/>
<path d="M120 270 c0 -33 3 -40 20 -40 16 0 20 -7 20 -30 0 -29 1 -30 50 -30
49 0 50 1 50 30 0 23 4 30 20 30 17 0 20 7 20 40 l0 40 -90 0 -90 0 0 -40z
m160 0 c0 -11 -4 -20 -10 -20 -5 0 -7 7 -4 15 5 12 -5 15 -56 15 -51 0 -61 -3
-56 -15 3 -8 1 -15 -4 -15 -6 0 -10 9 -10 20 0 18 7 20 70 20 63 0 70 -2 70
-20z m-70 -45 c0 -24 -5 -35 -15 -35 -10 0 -15 11 -15 35 0 24 5 35 15 35 10
0 15 -11 15 -35z m27 -17 c-2 -13 -4 -5 -4 17 -1 22 1 32 4 23 2 -10 2 -28 0
-40z"/>
<path d="M310 240 l0 -70 105 0 105 0 0 70 0 70 -105 0 -105 0 0 -70z m190 0
l0 -50 -85 0 -85 0 0 50 0 50 85 0 85 0 0 -50z"/>
<path d="M340 270 c0 -5 7 -10 15 -10 8 0 15 5 15 10 0 6 -7 10 -15 10 -8 0
-15 -4 -15 -10z"/>
<path d="M380 270 c0 -5 7 -10 15 -10 8 0 15 5 15 10 0 6 -7 10 -15 10 -8 0
-15 -4 -15 -10z"/>
<path d="M420 270 c0 -5 7 -10 15 -10 8 0 15 5 15 10 0 6 -7 10 -15 10 -8 0
-15 -4 -15 -10z"/>
<path d="M460 270 c0 -5 7 -10 15 -10 8 0 15 5 15 10 0 6 -7 10 -15 10 -8 0
-15 -4 -15 -10z"/>
<path d="M340 240 c0 -5 7 -10 15 -10 8 0 15 5 15 10 0 6 -7 10 -15 10 -8 0
-15 -4 -15 -10z"/>
<path d="M380 240 c0 -5 7 -10 15 -10 8 0 15 5 15 10 0 6 -7 10 -15 10 -8 0
-15 -4 -15 -10z"/>
<path d="M420 240 c0 -5 7 -10 15 -10 8 0 15 5 15 10 0 6 -7 10 -15 10 -8 0
-15 -4 -15 -10z"/>
<path d="M460 240 c0 -5 7 -10 15 -10 8 0 15 5 15 10 0 6 -7 10 -15 10 -8 0
-15 -4 -15 -10z"/>
<path d="M340 210 c0 -5 7 -10 15 -10 8 0 15 5 15 10 0 6 -7 10 -15 10 -8 0
-15 -4 -15 -10z"/>
<path d="M380 210 c0 -5 7 -10 15 -10 8 0 15 5 15 10 0 6 -7 10 -15 10 -8 0
-15 -4 -15 -10z"/>
<path d="M420 210 c0 -5 7 -10 15 -10 8 0 15 5 15 10 0 6 -7 10 -15 10 -8 0
-15 -4 -15 -10z"/>
<path d="M460 210 c0 -5 7 -10 15 -10 8 0 15 5 15 10 0 6 -7 10 -15 10 -8 0
-15 -4 -15 -10z"/>
<path d="M120 80 l0 -30 200 0 200 0 0 30 0 30 -200 0 -200 0 0 -30z m380 0
c0 -6 -67 -10 -180 -10 -113 0 -180 4 -180 10 0 6 67 10 180 10 113 0 180 -4
180 -10z"/>
</g>
</svg>
