<?xml version="1.0" standalone="no"?>
<!DOCTYPE svg PUBLIC "-//W3C//DTD SVG 20010904//EN"
 "http://www.w3.org/TR/2001/REC-SVG-20010904/DTD/svg10.dtd">
<svg version="1.0" xmlns="http://www.w3.org/2000/svg"
 width="50.000000pt" height="50.000000pt" viewBox="0 0 50.000000 50.000000"
 preserveAspectRatio="xMidYMid meet">

<g transform="translate(0.000000,50.000000) scale(0.100000,-0.100000)"
fill="#000000" stroke="none">
<path d="M20 290 l0 -190 40 0 c22 0 40 5 40 10 0 6 -13 10 -30 10 l-30 0 0
170 0 170 210 0 210 0 0 -170 0 -170 -30 0 c-16 0 -30 -4 -30 -10 0 -5 18 -10
40 -10 l40 0 0 190 0 190 -230 0 -230 0 0 -190z"/>
<path d="M60 400 c0 -15 7 -20 25 -20 18 0 25 5 25 20 0 15 -7 20 -25 20 -18
0 -25 -5 -25 -20z"/>
<path d="M130 340 l0 -80 120 0 120 0 0 80 0 80 -120 0 -120 0 0 -80z m220 0
l0 -60 -100 0 -100 0 0 60 0 60 100 0 100 0 0 -60z"/>
<path d="M390 400 c0 -15 7 -20 25 -20 18 0 25 5 25 20 0 15 -7 20 -25 20 -18
0 -25 -5 -25 -20z"/>
<path d="M60 340 c0 -15 7 -20 25 -20 18 0 25 5 25 20 0 15 -7 20 -25 20 -18
0 -25 -5 -25 -20z"/>
<path d="M390 340 c0 -15 7 -20 25 -20 18 0 25 5 25 20 0 15 -7 20 -25 20 -18
0 -25 -5 -25 -20z"/>
<path d="M60 280 c0 -15 7 -20 25 -20 18 0 25 5 25 20 0 15 -7 20 -25 20 -18
0 -25 -5 -25 -20z"/>
<path d="M390 280 c0 -15 7 -20 25 -20 18 0 25 5 25 20 0 15 -7 20 -25 20 -18
0 -25 -5 -25 -20z"/>
<path d="M104 209 c-3 -6 -1 -16 5 -22 6 -6 11 -45 11 -89 l0 -78 130 0 130 0
0 78 c0 44 5 83 11 89 26 26 -4 33 -141 33 -89 0 -141 -4 -146 -11z m83 -31
c33 -31 93 -31 126 0 37 34 47 28 47 -29 0 -43 -5 -55 -29 -80 -25 -25 -37
-29 -81 -29 -44 0 -56 4 -81 29 -24 25 -29 37 -29 80 0 57 10 63 47 29z m99 7
c-11 -8 -27 -15 -36 -15 -9 0 -25 7 -36 15 -17 13 -15 14 36 14 51 0 53 -1 36
-14z m-126 -130 c10 -12 10 -15 -4 -15 -9 0 -16 7 -16 15 0 8 2 15 4 15 2 0 9
-7 16 -15z m200 0 c0 -8 -7 -15 -16 -15 -14 0 -14 3 -4 15 7 8 14 15 16 15 2
0 4 -7 4 -15z"/>
<path d="M220 115 c-15 -18 2 -45 30 -45 28 0 45 27 30 45 -7 8 -20 15 -30 15
-10 0 -23 -7 -30 -15z m50 -15 c0 -5 -9 -10 -20 -10 -11 0 -20 5 -20 10 0 6 9
10 20 10 11 0 20 -4 20 -10z"/>
</g>
</svg>
